<svg xmlns="http://www.w3.org/2000/svg" xmlns:xlink="http://www.w3.org/1999/xlink" width="2000" zoomAndPan="magnify" viewBox="0 0 1500 1499.999933" height="2000" preserveAspectRatio="xMidYMid meet" version="1.0"><defs><g/><clipPath id="027af8b57e"><rect x="0" width="774" y="0" height="321"/></clipPath><clipPath id="b716bb9404"><path d="M 1126.796875 796.492188 L 1187.398438 796.492188 L 1187.398438 857.09375 L 1126.796875 857.09375 Z M 1126.796875 796.492188 " clip-rule="nonzero"/></clipPath><clipPath id="8913efcec6"><path d="M 1157.097656 796.492188 C 1140.363281 796.492188 1126.796875 810.058594 1126.796875 826.792969 C 1126.796875 843.527344 1140.363281 857.09375 1157.097656 857.09375 C 1173.832031 857.09375 1187.398438 843.527344 1187.398438 826.792969 C 1187.398438 810.058594 1173.832031 796.492188 1157.097656 796.492188 Z M 1157.097656 796.492188 " clip-rule="nonzero"/></clipPath><clipPath id="3a8a8923c0"><path d="M 0.796875 0.492188 L 61.398438 0.492188 L 61.398438 61.09375 L 0.796875 61.09375 Z M 0.796875 0.492188 " clip-rule="nonzero"/></clipPath><clipPath id="7eadbeef7c"><path d="M 31.097656 0.492188 C 14.363281 0.492188 0.796875 14.058594 0.796875 30.792969 C 0.796875 47.527344 14.363281 61.09375 31.097656 61.09375 C 47.832031 61.09375 61.398438 47.527344 61.398438 30.792969 C 61.398438 14.058594 47.832031 0.492188 31.097656 0.492188 Z M 31.097656 0.492188 " clip-rule="nonzero"/></clipPath><clipPath id="dfd5cc7400"><rect x="0" width="62" y="0" height="62"/></clipPath></defs><g transform="matrix(1, 0, 0, 1, 347, 605)"><g clip-path="url(#027af8b57e)"><g fill="#ffffff" fill-opacity="1"><g transform="translate(4.035937, 250.451031)"><g><path d="M 97.1875 -96.234375 C 89.945312 -96.660156 82.648438 -96.660156 75.296875 -96.234375 C 67.941406 -95.804688 61.597656 -93.144531 56.265625 -88.25 C 52.003906 -84.40625 49.394531 -79.335938 48.4375 -73.046875 C 47.476562 -66.765625 47.316406 -60.265625 47.953125 -53.546875 C 48.597656 -46.835938 49.023438 -40.925781 49.234375 -35.8125 C 49.453125 -33.25 49.769531 -30.050781 50.1875 -26.21875 C 50.613281 -22.382812 50.878906 -18.546875 50.984375 -14.703125 C 51.097656 -10.867188 50.515625 -7.78125 49.234375 -5.4375 C 47.523438 -2.238281 44.59375 -0.476562 40.4375 -0.15625 C 36.28125 0.15625 31.910156 -0.109375 27.328125 -0.953125 C 22.753906 -1.804688 18.972656 -2.234375 15.984375 -2.234375 C 10.441406 -2.234375 6.441406 -2.394531 3.984375 -2.71875 C 1.535156 -3.039062 0.3125 -6.1875 0.3125 -12.15625 C 0.3125 -23.445312 0.3125 -34.6875 0.3125 -45.875 C 0.3125 -57.070312 0.3125 -68.210938 0.3125 -79.296875 C 0.53125 -102.734375 0.640625 -126.332031 0.640625 -150.09375 C 0.640625 -173.863281 0.425781 -197.472656 0 -220.921875 C 0 -228.171875 0.957031 -232.753906 2.875 -234.671875 C 4.582031 -236.378906 8.3125 -237.234375 14.0625 -237.234375 C 14.488281 -237.234375 14.914062 -237.234375 15.34375 -237.234375 C 15.769531 -237.234375 16.09375 -237.234375 16.3125 -237.234375 C 19.925781 -237.015625 23.117188 -236.90625 25.890625 -236.90625 C 28.660156 -236.90625 31.222656 -236.90625 33.578125 -236.90625 C 35.921875 -236.90625 38.316406 -236.957031 40.765625 -237.0625 C 43.210938 -237.175781 45.34375 -236.804688 47.15625 -235.953125 C 48.96875 -235.097656 49.875 -233.070312 49.875 -229.875 C 49.875 -220.5 49.820312 -211.066406 49.71875 -201.578125 C 49.613281 -192.097656 49.5625 -182.5625 49.5625 -172.96875 C 49.5625 -171.050781 49.347656 -167.957031 48.921875 -163.6875 C 48.492188 -159.425781 48.332031 -155.003906 48.4375 -150.421875 C 48.539062 -145.835938 49.234375 -141.945312 50.515625 -138.75 C 51.796875 -135.5625 54.140625 -133.96875 57.546875 -133.96875 C 60.960938 -133.96875 64.265625 -133.910156 67.453125 -133.796875 C 70.648438 -133.691406 73.847656 -133.640625 77.046875 -133.640625 C 80.035156 -133.640625 83.019531 -133.640625 86 -133.640625 C 88.988281 -133.640625 91.972656 -133.640625 94.953125 -133.640625 C 98.796875 -133.640625 103.910156 -133.375 110.296875 -132.84375 C 116.691406 -132.3125 122.925781 -132.148438 129 -132.359375 C 135.082031 -132.578125 139.722656 -133.960938 142.921875 -136.515625 C 145.898438 -138.859375 147.707031 -141.84375 148.34375 -145.46875 C 148.988281 -149.09375 149.203125 -152.875 148.984375 -156.8125 C 148.773438 -160.757812 148.671875 -164.441406 148.671875 -167.859375 C 149.097656 -177.234375 149.203125 -186.660156 148.984375 -196.140625 C 148.773438 -205.628906 148.671875 -215.0625 148.671875 -224.4375 C 148.453125 -228.28125 148.875 -231.316406 149.9375 -233.546875 C 151.007812 -235.785156 153.570312 -236.90625 157.625 -236.90625 C 161.882812 -236.90625 166.09375 -236.90625 170.25 -236.90625 C 174.40625 -236.90625 178.507812 -236.90625 182.5625 -236.90625 C 187.457031 -236.695312 190.972656 -236.59375 193.109375 -236.59375 C 195.242188 -236.59375 196.414062 -233.925781 196.625 -228.59375 C 197.269531 -220.707031 197.378906 -212.660156 196.953125 -204.453125 C 196.523438 -196.253906 196.3125 -188.101562 196.3125 -180 C 196.3125 -170.195312 196.3125 -160.390625 196.3125 -150.578125 C 196.3125 -140.773438 196.3125 -130.867188 196.3125 -120.859375 C 196.3125 -109.128906 196.628906 -97.457031 197.265625 -85.84375 C 197.898438 -74.226562 198.328125 -62.554688 198.546875 -50.828125 C 198.546875 -48.910156 198.648438 -45.445312 198.859375 -40.4375 C 199.078125 -35.4375 199.078125 -30.003906 198.859375 -24.140625 C 198.648438 -18.273438 197.851562 -13.210938 196.46875 -8.953125 C 195.082031 -4.691406 192.789062 -2.453125 189.59375 -2.234375 C 183.625 -2.023438 177.65625 -1.972656 171.6875 -2.078125 C 165.71875 -2.179688 159.75 -2.234375 153.78125 -2.234375 C 150.375 -2.234375 148.40625 -4.046875 147.875 -7.671875 C 147.34375 -11.296875 147.445312 -15.289062 148.1875 -19.65625 C 148.9375 -24.03125 149.3125 -27.285156 149.3125 -29.421875 C 149.738281 -36.878906 149.953125 -44.441406 149.953125 -52.109375 C 149.953125 -59.785156 149.414062 -67.460938 148.34375 -75.140625 C 147.5 -80.890625 145.316406 -85.304688 141.796875 -88.390625 C 138.273438 -91.484375 134.007812 -93.5625 129 -94.625 C 124 -95.695312 118.9375 -96.019531 113.8125 -95.59375 C 111.257812 -95.59375 108.597656 -95.644531 105.828125 -95.75 C 103.054688 -95.863281 100.175781 -96.023438 97.1875 -96.234375 Z M 97.1875 -96.234375 "/></g></g></g><g fill="#ffffff" fill-opacity="1"><g transform="translate(203.83295, 250.451031)"><g><path d="M 0.3125 -92.71875 C 0.101562 -104.65625 2.445312 -116.535156 7.34375 -128.359375 C 12.25 -140.191406 19.070312 -150.585938 27.8125 -159.546875 C 36.125 -168.066406 45.609375 -174.5625 56.265625 -179.03125 C 66.921875 -183.507812 77.898438 -185.75 89.203125 -185.75 C 90.265625 -185.75 91.378906 -185.75 92.546875 -185.75 C 93.722656 -185.75 94.847656 -185.75 95.921875 -185.75 C 95.921875 -185.75 95.972656 -185.75 96.078125 -185.75 C 96.179688 -185.75 96.234375 -185.75 96.234375 -185.75 C 114.773438 -185.75 131.132812 -181.910156 145.3125 -174.234375 C 159.488281 -166.566406 170.625 -155.910156 178.71875 -142.265625 C 186.820312 -128.628906 190.875 -112.859375 190.875 -94.953125 C 190.875 -67.035156 182.132812 -44.335938 164.65625 -26.859375 C 156.125 -18.328125 145.941406 -11.769531 134.109375 -7.1875 C 122.285156 -2.601562 109.445312 -0.3125 95.59375 -0.3125 C 82.375 -0.3125 70.0625 -2.707031 58.65625 -7.5 C 47.257812 -12.300781 37.242188 -18.910156 28.609375 -27.328125 C 19.984375 -35.753906 13.164062 -45.5625 8.15625 -56.75 C 3.144531 -67.9375 0.53125 -79.925781 0.3125 -92.71875 Z M 94.640625 -147.703125 C 87.179688 -147.703125 79.929688 -145.304688 72.890625 -140.515625 C 65.859375 -135.722656 60.050781 -129.539062 55.46875 -121.96875 C 50.882812 -114.40625 48.488281 -106.46875 48.28125 -98.15625 C 48.0625 -88.988281 49.550781 -80.140625 52.75 -71.609375 C 55.945312 -63.085938 60.847656 -55.945312 67.453125 -50.1875 C 74.066406 -44.4375 82.273438 -41.03125 92.078125 -39.96875 C 102.953125 -38.894531 112.117188 -40.597656 119.578125 -45.078125 C 127.035156 -49.554688 132.789062 -55.6875 136.84375 -63.46875 C 140.894531 -71.25 143.128906 -79.773438 143.546875 -89.046875 C 143.972656 -98.316406 142.585938 -107.210938 139.390625 -115.734375 C 136.203125 -124.265625 131.085938 -131.457031 124.046875 -137.3125 C 117.015625 -143.175781 108.0625 -146.640625 97.1875 -147.703125 C 96.769531 -147.703125 96.347656 -147.703125 95.921875 -147.703125 C 95.492188 -147.703125 95.066406 -147.703125 94.640625 -147.703125 Z M 94.640625 -147.703125 "/></g></g></g><g fill="#ffffff" fill-opacity="1"><g transform="translate(395.318226, 250.451031)"><g><path d="M 158.578125 -20.46875 C 146.003906 -9.800781 131.082031 -3.5625 113.8125 -1.75 C 96.550781 0.0507812 79.394531 -3.203125 62.34375 -11.515625 C 61.488281 -12.148438 60.316406 -12.46875 58.828125 -12.46875 C 57.335938 -12.46875 55.847656 -12.039062 54.359375 -11.1875 C 51.796875 -9.695312 50.515625 -7.351562 50.515625 -4.15625 C 50.515625 -0.957031 50.515625 2.238281 50.515625 5.4375 C 50.515625 8.632812 50.515625 11.832031 50.515625 15.03125 C 50.515625 17.15625 50.726562 20.613281 51.15625 25.40625 C 51.582031 30.207031 51.953125 35.378906 52.265625 40.921875 C 52.585938 46.460938 52.535156 51.414062 52.109375 55.78125 C 51.679688 60.15625 50.507812 62.984375 48.59375 64.265625 C 47.738281 64.691406 46.78125 65.007812 45.71875 65.21875 C 44.65625 65.4375 43.585938 65.648438 42.515625 65.859375 C 36.972656 66.503906 31.269531 67.195312 25.40625 67.9375 C 19.550781 68.6875 14.382812 68.15625 9.90625 66.34375 C 5.4375 64.53125 2.664062 60.109375 1.59375 53.078125 C 0.101562 40.492188 -0.210938 27.96875 0.640625 15.5 C 1.492188 3.03125 1.921875 -9.378906 1.921875 -21.734375 C 1.921875 -45.828125 1.972656 -70.285156 2.078125 -95.109375 C 2.179688 -119.941406 2.019531 -144.613281 1.59375 -169.125 C 1.59375 -173.601562 1.859375 -176.800781 2.390625 -178.71875 C 2.929688 -180.632812 3.519531 -181.914062 4.15625 -182.5625 C 6.070312 -184.476562 9.210938 -185.0625 13.578125 -184.3125 C 17.953125 -183.570312 22.429688 -182.507812 27.015625 -181.125 C 31.597656 -179.738281 34.957031 -178.832031 37.09375 -178.40625 C 45.832031 -176.914062 54.035156 -176.804688 61.703125 -178.078125 C 69.378906 -179.359375 77.109375 -180.957031 84.890625 -182.875 C 92.671875 -184.789062 100.820312 -185.75 109.34375 -185.75 C 121.488281 -185.75 132.460938 -183.242188 142.265625 -178.234375 C 152.078125 -173.234375 160.390625 -166.414062 167.203125 -157.78125 C 174.023438 -149.144531 179.410156 -139.5 183.359375 -128.84375 C 187.304688 -118.1875 189.488281 -107.15625 189.90625 -95.75 C 190.332031 -84.351562 188.945312 -73.328125 185.75 -62.671875 C 182.976562 -53.710938 179.300781 -45.71875 174.71875 -38.6875 C 170.144531 -31.65625 164.765625 -25.582031 158.578125 -20.46875 Z M 94.640625 -38.6875 C 95.066406 -38.6875 95.382812 -38.6875 95.59375 -38.6875 C 95.8125 -38.6875 96.023438 -38.6875 96.234375 -38.6875 C 104.972656 -39.113281 112.753906 -41.773438 119.578125 -46.671875 C 126.398438 -51.578125 131.832031 -58.078125 135.875 -66.171875 C 139.925781 -74.273438 141.847656 -83.226562 141.640625 -93.03125 C 141.640625 -103.269531 139.5625 -112.4375 135.40625 -120.53125 C 131.25 -128.632812 125.707031 -135.082031 118.78125 -139.875 C 111.851562 -144.675781 104.019531 -147.078125 95.28125 -147.078125 L 94 -147.078125 C 85.46875 -146.859375 77.789062 -144.242188 70.96875 -139.234375 C 64.15625 -134.222656 58.828125 -127.507812 54.984375 -119.09375 C 51.148438 -110.675781 49.34375 -101.242188 49.5625 -90.796875 C 49.769531 -80.992188 51.84375 -72.148438 55.78125 -64.265625 C 59.726562 -56.378906 65.113281 -50.144531 71.9375 -45.5625 C 78.757812 -40.976562 86.328125 -38.6875 94.640625 -38.6875 Z M 94.640625 -38.6875 "/></g></g></g><g fill="#ffffff" fill-opacity="1"><g transform="translate(585.844467, 250.451031)"><g><path d="M 179.359375 -81.203125 C 176.804688 -79.078125 173.023438 -77.640625 168.015625 -76.890625 C 163.003906 -76.140625 157.671875 -75.765625 152.015625 -75.765625 C 146.367188 -75.765625 141.09375 -75.867188 136.1875 -76.078125 C 131.289062 -76.296875 127.566406 -76.40625 125.015625 -76.40625 C 113.929688 -76.195312 102.953125 -76.035156 92.078125 -75.921875 C 81.203125 -75.816406 70.222656 -75.765625 59.140625 -75.765625 C 55.734375 -75.765625 53.550781 -74.695312 52.59375 -72.5625 C 51.632812 -70.4375 51.523438 -68.039062 52.265625 -65.375 C 53.015625 -62.71875 54.03125 -60.429688 55.3125 -58.515625 C 59.789062 -52.753906 65.382812 -48.113281 72.09375 -44.59375 C 78.8125 -41.082031 85.789062 -38.898438 93.03125 -38.046875 C 101.132812 -37.191406 107.90625 -38.3125 113.34375 -41.40625 C 118.78125 -44.5 124.90625 -47.75 131.71875 -51.15625 C 134.914062 -52.863281 137.097656 -53.925781 138.265625 -54.34375 C 139.441406 -54.769531 141.414062 -53.8125 144.1875 -51.46875 C 147.175781 -49.125 150 -45.925781 152.65625 -41.875 C 155.320312 -37.832031 157.9375 -34.316406 160.5 -31.328125 C 163.269531 -27.703125 163.160156 -24.289062 160.171875 -21.09375 C 157.191406 -17.90625 152.609375 -14.976562 146.421875 -12.3125 C 140.242188 -9.644531 133.53125 -7.351562 126.28125 -5.4375 C 119.039062 -3.519531 112.488281 -2.023438 106.625 -0.953125 C 100.757812 0.109375 96.765625 0.640625 94.640625 0.640625 C 80.359375 0.640625 67.195312 -2.179688 55.15625 -7.828125 C 43.113281 -13.484375 32.828125 -21.160156 24.296875 -30.859375 C 15.773438 -40.554688 9.378906 -51.476562 5.109375 -63.625 C 0.847656 -75.769531 -0.800781 -88.503906 0.15625 -101.828125 C 1.113281 -115.148438 5.21875 -128.097656 12.46875 -140.671875 C 18.007812 -150.484375 25.414062 -158.796875 34.6875 -165.609375 C 43.957031 -172.429688 54.1875 -177.492188 65.375 -180.796875 C 76.570312 -184.097656 88.03125 -185.585938 99.75 -185.265625 C 111.476562 -184.953125 122.613281 -182.609375 133.15625 -178.234375 C 143.707031 -173.867188 152.925781 -167.316406 160.8125 -158.578125 C 164.4375 -154.523438 167.898438 -149.460938 171.203125 -143.390625 C 174.515625 -137.316406 177.34375 -130.765625 179.6875 -123.734375 C 182.03125 -116.703125 183.46875 -109.828125 184 -103.109375 C 184.53125 -96.390625 183.835938 -90.257812 181.921875 -84.71875 C 181.492188 -83.445312 180.640625 -82.273438 179.359375 -81.203125 Z M 131.078125 -114.453125 C 131.722656 -115.953125 131.9375 -117.550781 131.71875 -119.25 C 131.507812 -121.8125 130.335938 -124.265625 128.203125 -126.609375 C 122.453125 -134.710938 114.992188 -140.679688 105.828125 -144.515625 C 96.660156 -148.347656 87.28125 -148.132812 77.6875 -143.875 C 73.425781 -141.957031 69.429688 -139.503906 65.703125 -136.515625 C 61.972656 -133.535156 58.507812 -130.335938 55.3125 -126.921875 C 54.457031 -126.078125 53.601562 -125.117188 52.75 -124.046875 C 51.894531 -122.984375 51.253906 -121.8125 50.828125 -120.53125 C 49.984375 -117.976562 50.410156 -115.632812 52.109375 -113.5 C 53.816406 -111.363281 55.953125 -110.296875 58.515625 -110.296875 L 123.734375 -110.296875 C 127.359375 -110.296875 129.804688 -111.679688 131.078125 -114.453125 Z M 131.078125 -114.453125 "/></g></g></g></g></g><g clip-path="url(#b716bb9404)"><g clip-path="url(#8913efcec6)"><g transform="matrix(1, 0, 0, 1, 1126, 796)"><g clip-path="url(#dfd5cc7400)"><g clip-path="url(#3a8a8923c0)"><g clip-path="url(#7eadbeef7c)"><path fill="#5170ff" d="M 0.796875 0.492188 L 61.398438 0.492188 L 61.398438 61.09375 L 0.796875 61.09375 Z M 0.796875 0.492188 " fill-opacity="1" fill-rule="nonzero"/></g></g></g></g></g></g></svg>